<svg width="210" height="74" viewBox="0 0 210 74" fill="none" xmlns="http://www.w3.org/2000/svg">
<path d="M6.87891 65.8477C10.8438 65.3008 13.6921 64.7995 15.4238 64.3438C17.1556 63.888 18.819 61.7461 20.4141 57.918C20.3685 49.3047 20.3229 40.6914 20.2773 32.0781C20.2773 23.4648 20.2773 14.8516 20.2773 6.23828C20.0039 6.23828 19.7305 6.21549 19.457 6.16992C19.1836 6.12435 18.9102 6.07878 18.6367 6.0332C18.5 11.0918 18.5684 18.6569 18.8418 28.7285C19.1152 38.7546 19.252 48.0742 19.252 56.6875C18.5228 60.3789 16.9961 62.5436 14.6719 63.1816C12.3477 63.7741 9.61328 64.1387 6.46875 64.2754C6.51432 64.8223 6.65104 65.3464 6.87891 65.8477ZM8.04102 73.2305C6.44596 73.0026 4.09896 72.6152 1 72.0684C0.863281 69.6986 0.749349 67.306 0.658203 64.8906C0.521484 62.4297 0.384766 59.9915 0.248047 57.5762C3.5293 58.123 6.24089 58.3965 8.38281 58.3965C10.5247 58.3509 11.9147 56.4824 12.5527 52.791C12.3249 44.5423 12.1882 36.2708 12.1426 27.9766C11.8691 23.4648 11.5273 18.9303 11.1172 14.373C10.707 9.81576 10.5931 5.28125 10.7754 0.769531C13.6465 1.22526 16.5404 1.72656 19.457 2.27344C22.3737 2.77474 25.2904 3.27604 28.207 3.77734C28.0247 13.0286 27.8197 22.2799 27.5918 31.5312C27.4095 40.737 27.25 49.9427 27.1133 59.1484C26.5664 62.7487 25.7233 65.6198 24.584 67.7617C23.4447 69.9036 21.0749 71.6582 17.4746 73.0254C15.8796 73.0254 14.2845 73.0482 12.6895 73.0938C11.14 73.1393 9.59049 73.1849 8.04102 73.2305ZM44.4082 61.9512C46.5501 61.7689 48.5326 60.9714 50.3555 59.5586C52.224 58.1458 54.0469 56.847 55.8242 55.6621C55.9609 55.7533 56.2116 55.8444 56.5762 55.9355C56.6217 57.2116 56.7129 59.2168 56.8496 61.9512C57.0319 61.9512 57.2142 61.9512 57.3965 61.9512C57.5788 61.9512 57.7839 61.9512 58.0117 61.9512C57.9206 53.748 57.8294 45.5449 57.7383 37.3418C57.6927 29.1387 57.6471 20.9128 57.6016 12.6641C57.4193 12.6641 57.2142 12.6641 56.9863 12.6641C56.804 12.6641 56.6217 12.6641 56.4395 12.6641C56.4395 19.5 56.4395 26.3132 56.4395 33.1035C56.485 39.8483 56.5306 46.6387 56.5762 53.4746C55.2546 54.7051 53.6139 56.1862 51.6543 57.918C49.7402 59.6497 47.8717 60.5156 46.0488 60.5156C44.4538 60.0599 42.7676 59.3991 40.9902 58.5332C39.2129 57.6217 37.8685 56.4596 36.957 55.0469C36.8203 47.9831 36.7064 40.9421 36.6152 33.9238C36.5697 26.86 36.5013 19.7734 36.4102 12.6641C36.1367 12.6641 35.8633 12.6641 35.5898 12.6641C35.3164 12.6641 35.0658 12.6641 34.8379 12.6641C35.0658 22.599 35.248 30.278 35.3848 35.7012C35.5215 41.0788 35.6126 45.1348 35.6582 47.8691C35.7493 50.6035 35.8177 52.4492 35.8633 53.4062C35.9544 54.3633 36.0684 55.3431 36.2051 56.3457C38.1647 58.0775 40.8991 59.946 44.4082 61.9512ZM44.4082 68.7188C41.9473 67.4883 39.304 66.1667 36.4785 64.7539C33.653 63.3411 31.5566 61.3359 30.1895 58.7383C30.0072 50.444 29.8249 42.1725 29.6426 33.9238C29.4603 25.6296 28.9362 17.3581 28.0703 9.10938C30.2578 9.10938 32.4453 9.10938 34.6328 9.10938C36.8203 9.10938 39.0078 9.10938 41.1953 9.10938C41.5599 16.2643 41.6738 23.4648 41.5371 30.7109C41.446 37.9115 41.3776 45.0892 41.332 52.2441C42.8359 52.5632 44.3398 52.8822 45.8438 53.2012C47.3932 53.5202 48.9883 53.6113 50.6289 53.4746C51.5859 46.4108 51.9277 39.0964 51.6543 31.5312C51.4264 23.9206 51.2441 16.515 51.1074 9.31445C53.2493 9.31445 55.3913 9.29167 57.5332 9.24609C59.6751 9.20052 61.8398 9.15495 64.0273 9.10938C63.6628 18.7253 63.321 28.3639 63.002 38.0254C62.7285 47.6413 62.5918 57.2572 62.5918 66.873C60.6777 67.1921 58.7637 67.5111 56.8496 67.8301C54.9811 68.1491 53.1126 68.4453 51.2441 68.7188C51.1986 67.944 51.1758 66.7819 51.1758 65.2324C48.7148 66.6908 47.1882 67.5794 46.5957 67.8984C46.0488 68.1719 45.3197 68.4453 44.4082 68.7188ZM66.5566 9.17773C68.4707 9.22331 70.4303 9.26888 72.4355 9.31445C74.4408 9.36003 76.446 9.38281 78.4512 9.38281C79.8639 15.444 81.9603 21.0951 84.7402 26.3359C87.5658 31.5768 90.528 37 93.627 42.6055C93.8092 33.7643 93.7181 25.151 93.3535 16.7656C93.3079 15.9453 93.2624 14.6465 93.2168 12.8691C93.2168 11.0918 93.2168 9.86133 93.2168 9.17773C95.1764 9.22331 97.1361 9.26888 99.0957 9.31445C101.101 9.36003 103.129 9.38281 105.18 9.38281C105.316 10.0664 105.271 13.5755 105.043 19.9102C104.815 26.2448 104.701 35.0176 104.701 46.2285C104.975 53.2467 105.316 60.1966 105.727 67.0781C103.539 67.0781 101.374 67.1009 99.2324 67.1465C97.1361 67.1921 95.0169 67.2148 92.875 67.2148C92.3281 63.7513 90.1178 58.6699 86.2441 51.9707C82.416 45.2715 79.6816 40.2812 78.041 37C78.041 38.4583 78.0182 39.9622 77.9727 41.5117C77.9727 43.0156 77.9727 44.5879 77.9727 46.2285C78.1094 49.6921 78.2689 53.1784 78.4512 56.6875C78.6335 60.151 78.8385 63.6146 79.0664 67.0781C76.8789 67.0781 74.7142 67.1009 72.5723 67.1465C70.4303 67.1921 68.2884 67.2148 66.1465 67.2148C66.5111 58.8294 66.7845 50.444 66.9668 42.0586C67.1491 33.6732 67.0352 25.2422 66.625 16.7656C66.625 15.9453 66.6022 14.6465 66.5566 12.8691C66.5566 11.0918 66.5566 9.86133 66.5566 9.17773ZM73.4609 15.3301H72.0938C72.0482 23.2598 72.0026 31.1667 71.957 39.0508C71.9115 46.9349 71.8887 54.819 71.8887 62.7031C72.1165 62.7031 72.3672 62.7031 72.6406 62.7031C72.9141 62.7031 73.1875 62.7031 73.4609 62.7031C73.4609 55.3203 73.4609 47.9147 73.4609 40.4863C73.4609 33.0579 73.4609 25.6296 73.4609 18.2012C77.6081 25.8574 81.7552 33.1947 85.9023 40.2129C90.0951 47.2311 94.265 54.5684 98.4121 62.2246H100.189C100.189 53.8848 100.189 45.8411 100.189 38.0938C100.189 30.3464 100.189 22.2799 100.189 13.8945C99.916 13.9857 99.4603 14.0768 98.8223 14.168C98.7767 21.9609 98.7311 29.4577 98.6855 36.6582C98.64 43.8587 98.6172 51.3555 98.6172 59.1484C94.3789 51.5833 90.1634 44.3145 85.9707 37.3418C81.8236 30.3236 77.6536 22.9863 73.4609 15.3301ZM129.652 54.0898C129.652 50.9453 129.652 48.1198 129.652 45.6133C129.652 43.1068 129.652 40.2585 129.652 37.0684C131.703 37.0684 133.777 37.0684 135.873 37.0684C138.015 37.0684 140.134 37.0684 142.23 37.0684C142.23 42.3092 142.253 47.2083 142.299 51.7656C142.39 56.2773 142.549 61.1309 142.777 66.3262C135.759 67.0098 130.04 66.6908 125.619 65.3691C121.244 64.0475 116.664 60.3561 111.879 54.2949C107.458 43.3574 107.458 32.4199 111.879 21.4824C116.664 15.4668 121.244 11.7982 125.619 10.4766C130.04 9.10938 135.759 8.76758 142.777 9.45117C142.686 11.5475 142.595 13.6211 142.504 15.6719C142.458 17.6771 142.413 19.6823 142.367 21.6875C141 21.5508 139.656 21.3913 138.334 21.209C137.058 21.0267 135.6 20.9811 133.959 21.0723C129.994 21.3001 126.895 22.8724 124.662 25.7891C122.429 28.6602 121.085 31.9414 120.629 35.6328C120.219 39.3242 120.743 42.9473 122.201 46.502C123.66 50.0111 126.143 52.5404 129.652 54.0898ZM137.445 14.4414C137.445 14.3047 137.445 14.1452 137.445 13.9629C137.445 13.7806 137.445 13.5983 137.445 13.416C133.799 13.5983 131.065 13.7806 129.242 13.9629C124.229 15.6947 120.469 18.8392 117.963 23.3965C115.502 27.9538 114.271 32.8073 114.271 37.957C114.271 43.0612 115.502 47.8919 117.963 52.4492C120.469 57.0065 124.229 60.1283 129.242 61.8145C130.609 61.9512 131.977 62.0651 133.344 62.1562C134.711 62.2474 136.078 62.3385 137.445 62.4297C137.172 55.2747 137.035 48.1426 137.035 41.0332H135.668C135.668 44.4512 135.668 47.8464 135.668 51.2188C135.668 54.5911 135.668 57.9635 135.668 61.3359C129.151 61.5182 124.252 59.194 120.971 54.3633C117.689 49.5326 116.003 44.1777 115.912 38.2988C115.867 32.4199 117.416 26.9967 120.561 22.0293C123.705 17.0618 128.467 14.5326 134.848 14.4414H135.668H137.445ZM144.555 10.2715C146.423 10.3171 148.314 10.3626 150.229 10.4082C152.188 10.4538 154.148 10.4766 156.107 10.4766C156.244 11.1146 156.199 14.4414 155.971 20.457C155.743 26.4271 155.629 34.6758 155.629 45.2031C155.674 46.8438 155.72 48.5072 155.766 50.1934C155.857 51.834 155.971 53.4746 156.107 55.1152C159.662 55.2064 162.943 55.252 165.951 55.252C167.683 55.1152 169.415 54.9785 171.146 54.8418C172.924 54.7051 174.701 54.5228 176.479 54.2949C176.479 56.3457 176.479 58.3965 176.479 60.4473C176.524 62.4525 176.57 64.4577 176.615 66.4629C171.146 66.0527 165.678 65.8704 160.209 65.916C154.786 65.9616 149.408 66.0299 144.076 66.1211C144.395 58.1914 144.646 50.1022 144.828 41.8535C145.056 33.5592 144.988 25.4245 144.623 17.4492C144.577 16.6745 144.555 15.444 144.555 13.7578C144.555 12.0716 144.555 10.9095 144.555 10.2715ZM149.682 59.5586V60.8574L172.24 61.0625C172.24 60.8346 172.24 60.6068 172.24 60.3789C172.24 60.1055 172.24 59.832 172.24 59.5586C168.412 59.5586 164.903 59.5586 161.713 59.5586C158.523 59.5586 155.014 59.5586 151.186 59.5586C151.186 52.0846 151.186 44.6335 151.186 37.2051C151.186 29.7311 151.186 22.2344 151.186 14.7148C150.958 14.7604 150.73 14.806 150.502 14.8516C150.274 14.8971 150.069 14.9199 149.887 14.9199C149.841 22.3939 149.796 29.8451 149.75 37.2734C149.704 44.7018 149.682 52.1302 149.682 59.5586ZM184.34 62.5664H203.344L203.207 61.2676L185.844 61.0625V39.1875H196.029L195.893 37.8203L185.844 37.6152V16.1504H203.344L203.207 14.7832L184.545 14.5781L184.34 62.5664ZM209.359 55.7305C209.314 57.6901 209.268 59.6725 209.223 61.6777C209.223 63.6374 209.223 65.597 209.223 67.5566C203.389 67.7389 198.308 67.6706 193.979 67.3516C189.695 67.0326 184.636 66.9414 178.803 67.0781C179.122 58.7383 179.372 50.4212 179.555 42.127C179.737 33.8327 179.646 25.5156 179.281 17.1758C179.281 16.3555 179.258 15.0794 179.213 13.3477C179.167 11.5703 179.145 10.3398 179.145 9.65625C183.246 9.7474 187.37 9.83854 191.518 9.92969C195.71 9.97526 200.199 9.79297 204.984 9.38281C205.395 9.38281 206.124 9.36003 207.172 9.31445C208.22 9.26888 208.949 9.24609 209.359 9.24609C209.314 11.2057 209.268 13.1882 209.223 15.1934C209.223 17.153 209.223 19.1126 209.223 21.0723C208.812 21.209 207.536 21.1634 205.395 20.9355C203.253 20.7077 198.969 20.5938 192.543 20.5938C191.632 20.6849 190.948 20.7305 190.492 20.7305C190.401 24.194 190.333 28.2044 190.287 32.7617C192.247 32.8529 193.454 32.8984 193.91 32.8984C194.411 32.8529 195.688 32.7161 197.738 32.4883C198.741 32.3971 199.857 32.3516 201.088 32.3516C201.088 34.3112 201.065 36.2708 201.02 38.2305C201.02 40.1901 201.02 42.1497 201.02 44.1094C200.701 44.2917 199.971 44.2689 198.832 44.041C197.738 43.8132 194.867 43.6764 190.219 43.6309C190.219 44.0866 190.196 44.5423 190.15 44.998C190.15 45.4082 190.15 45.8184 190.15 46.2285C190.242 47.8691 190.31 49.5098 190.355 51.1504C190.447 52.7454 190.538 54.3633 190.629 56.0039C193.773 56.1406 196.143 56.2318 197.738 56.2773C199.379 56.2773 201.794 56.1406 204.984 55.8672C205.395 55.8672 206.124 55.8444 207.172 55.7988C208.22 55.7533 208.949 55.7305 209.359 55.7305Z" fill="black"/>
</svg>
